<svg xmlns="http://www.w3.org/2000/svg" version="1.1" xmlns:xlink="http://www.w3.org/1999/xlink" xmlns:svgjs="http://svgjs.dev/svgjs" width="128" height="128" viewBox="0 0 128 128"><g transform="matrix(0.8046875,0,0,0.8046875,12.760780803769592,23.210546291434724)"><svg viewBox="0 0 95 76" data-background-color="#ffffff" preserveAspectRatio="xMidYMid meet" height="102" width="128" xmlns="http://www.w3.org/2000/svg" xmlns:xlink="http://www.w3.org/1999/xlink"><g id="tight-bounds" transform="matrix(1,0,0,1,-0.24052598405933168,-0.23103541543329698)"><svg viewBox="0 0 95.481 76.46215994647052" height="76.46215994647052" width="95.481"><g><svg viewBox="0 0 95.481 76.46215994647052" height="76.46215994647052" width="95.481"><g><svg viewBox="0 0 95.481 76.46215994647052" height="76.46215994647052" width="95.481"><g id="textblocktransform"><svg viewBox="0 0 95.481 76.46215994647052" height="76.46215994647052" width="95.481" id="textblock"><g><svg viewBox="0 0 95.481 76.46215994647052" height="76.46215994647052" width="95.481"><g><svg viewBox="0 0 95.481 76.46215994647052" height="76.46215994647052" width="95.481"><g><svg xmlns="http://www.w3.org/2000/svg" viewBox="5 13.927084 89.99999604266544 72.07291599999999" x="0" y="0" height="76.46215994647052" width="95.481" class="icon-icon-0" data-fill-palette-color="accent" id="icon-0"><path d="M68.397 26.512C61.788 18.808 51.983 13.927 41.036 13.927 21.134 13.927 5 30.061 5 49.964 5 69.866 21.134 86 41.036 86 51.983 86 61.788 81.118 68.397 73.415L45.541 49.964 68.397 26.512zM50.046 22.416c2.776 0 5.025 2.25 5.024 5.025 0 2.775-2.25 5.025-5.024 5.025-2.775 0-5.025-2.25-5.025-5.025 0-2.775 2.25-5.025 5.025-5.025z" fill="#e65728" data-fill-palette-color="accent"></path><path d="M72.226 68.21l0.022-11.778c25.347 0.732 28.238-22.284 14.978-36.698 5.361 9.778 6.235 24.652-14.932 24.096L72.317 31.808 54.071 49.964 72.226 68.21z" fill="#e65728" data-fill-palette-color="accent"></path></svg></g></svg></g></svg></g></svg></g></svg></g></svg></g><defs></defs></svg><rect width="95.481" height="76.46215994647052" fill="none" stroke="none" visibility="hidden"></rect></g></svg></g></svg>