<svg xmlns="http://www.w3.org/2000/svg" version="1.1" xmlns:xlink="http://www.w3.org/1999/xlink" xmlns:svgjs="http://svgjs.dev/svgjs" width="1000" height="1000" viewBox="0 0 1000 1000"><rect width="1000" height="1000" fill="#ffffff"></rect><g transform="matrix(0.7,0,0,0.7,149.5757575757575,431.35270372305393)"><svg viewBox="0 0 396 78" data-background-color="#ffffff" preserveAspectRatio="xMidYMid meet" height="196" width="1000" xmlns="http://www.w3.org/2000/svg" xmlns:xlink="http://www.w3.org/1999/xlink"><g id="tight-bounds" transform="matrix(1,0,0,1,0.24000000000003752,0.02697939910211744)"><svg viewBox="0 0 395.5199999999999 77.94613204694895" height="77.94613204694895" width="395.5199999999999"><g><svg viewBox="0 0 576.8024396695763 113.67192336035372" height="77.94613204694895" width="395.5199999999999"><g><rect width="6.308339297268682" height="76.16018865143698" x="158.46012315432682" y="18.755867354458367" fill="#000000" opacity="1" stroke-width="0" stroke="transparent" fill-opacity="1" class="rect-in-0" data-fill-palette-color="primary" rx="1%" id="in-0" data-palette-color="#ffa96a"></rect></g><g transform="matrix(1,0,0,1,181.28243966957635,18.945320560058953)"><svg viewBox="0 0 395.52 75.78128224023581" height="75.78128224023581" width="395.52"><g><svg viewBox="0 0 395.52 75.78128224023581" height="75.78128224023581" width="395.52"><g><svg viewBox="0 0 395.52 75.78128224023581" height="75.78128224023581" width="395.52"><g transform="matrix(1,0,0,1,0,0)"><svg width="395.52" viewBox="4.4 -35.5 203.55000000000004 36.00000000000001" height="75.78128224023581" data-palette-color="#ffa96a"><svg></svg><g class="undefined-text-0" data-fill-palette-color="primary" id="text-0"><path d="M6.45 0v0c-0.6 0-1.09-0.2-1.47-0.6-0.387-0.4-0.58-0.883-0.58-1.45v0-30.95c0-0.567 0.193-1.043 0.58-1.43 0.38-0.38 0.853-0.57 1.42-0.57v0h17.55c0.567 0 1.05 0.183 1.45 0.55 0.4 0.367 0.6 0.833 0.6 1.4v0c0 0.533-0.2 0.983-0.6 1.35-0.4 0.367-0.883 0.55-1.45 0.55v0h-15.75l0.3-0.4v12.25l-0.25-0.55h13.45c0.567 0 1.05 0.19 1.45 0.57 0.4 0.387 0.6 0.863 0.6 1.43v0c0 0.5-0.2 0.94-0.6 1.32-0.4 0.387-0.883 0.58-1.45 0.58v0h-13.55l0.35-0.45v14.35c0 0.567-0.2 1.05-0.6 1.45-0.4 0.4-0.883 0.6-1.45 0.6zM63.75-17.5v0c0 2.567-0.417 4.94-1.25 7.12-0.833 2.187-2 4.097-3.5 5.73-1.5 1.633-3.283 2.9-5.35 3.8-2.067 0.9-4.317 1.35-6.75 1.35v0c-2.467 0-4.723-0.45-6.77-1.35-2.053-0.9-3.83-2.167-5.33-3.8-1.5-1.633-2.667-3.543-3.5-5.73-0.833-2.18-1.25-4.553-1.25-7.12v0c0-2.6 0.417-4.993 1.25-7.18 0.833-2.18 2-4.08 3.5-5.7 1.5-1.613 3.277-2.87 5.33-3.77 2.047-0.9 4.303-1.35 6.77-1.35v0c2.433 0 4.683 0.45 6.75 1.35 2.067 0.9 3.85 2.157 5.35 3.77 1.5 1.62 2.667 3.52 3.5 5.7 0.833 2.187 1.25 4.58 1.25 7.18zM59.45-17.5v0c0-2.733-0.54-5.15-1.62-7.25-1.087-2.1-2.563-3.75-4.43-4.95-1.867-1.2-4.033-1.8-6.5-1.8v0c-2.467 0-4.64 0.6-6.52 1.8-1.887 1.2-3.363 2.85-4.43 4.95-1.067 2.1-1.6 4.517-1.6 7.25v0c0 2.7 0.533 5.107 1.6 7.22 1.067 2.12 2.543 3.78 4.43 4.98 1.88 1.2 4.053 1.8 6.52 1.8v0c2.467 0 4.633-0.6 6.5-1.8 1.867-1.2 3.343-2.86 4.43-4.98 1.08-2.113 1.62-4.52 1.62-7.22zM101.95-17.5v0c0 2.567-0.417 4.94-1.25 7.12-0.833 2.187-2 4.097-3.5 5.73-1.5 1.633-3.283 2.9-5.35 3.8-2.067 0.9-4.317 1.35-6.75 1.35v0c-2.467 0-4.723-0.45-6.77-1.35-2.053-0.9-3.83-2.167-5.33-3.8-1.5-1.633-2.667-3.543-3.5-5.73-0.833-2.18-1.25-4.553-1.25-7.12v0c0-2.6 0.417-4.993 1.25-7.18 0.833-2.18 2-4.08 3.5-5.7 1.5-1.613 3.277-2.87 5.33-3.77 2.047-0.9 4.303-1.35 6.77-1.35v0c2.433 0 4.683 0.45 6.75 1.35 2.067 0.9 3.85 2.157 5.35 3.77 1.5 1.62 2.667 3.52 3.5 5.7 0.833 2.187 1.25 4.58 1.25 7.18zM97.65-17.5v0c0-2.733-0.54-5.15-1.62-7.25-1.087-2.1-2.563-3.75-4.43-4.95-1.867-1.2-4.033-1.8-6.5-1.8v0c-2.467 0-4.64 0.6-6.52 1.8-1.887 1.2-3.363 2.85-4.43 4.95-1.067 2.1-1.6 4.517-1.6 7.25v0c0 2.7 0.533 5.107 1.6 7.22 1.067 2.12 2.543 3.78 4.43 4.98 1.88 1.2 4.053 1.8 6.52 1.8v0c2.467 0 4.633-0.6 6.5-1.8 1.867-1.2 3.343-2.86 4.43-4.98 1.08-2.113 1.62-4.52 1.62-7.22zM110.6-35h12.5c2.433 0 4.577 0.457 6.43 1.37 1.847 0.92 3.387 2.197 4.62 3.83 1.233 1.633 2.16 3.507 2.78 5.62 0.613 2.12 0.92 4.347 0.92 6.68v0c0 3.2-0.55 6.127-1.65 8.78-1.1 2.647-2.733 4.76-4.9 6.34-2.167 1.587-4.9 2.38-8.2 2.38v0h-12.5c-0.567 0-1.043-0.2-1.43-0.6-0.38-0.4-0.57-0.883-0.57-1.45v0-30.95c0-0.567 0.19-1.043 0.57-1.43 0.387-0.38 0.863-0.57 1.43-0.57zM112.45-3.9h10.15c2.567 0 4.66-0.617 6.28-1.85 1.613-1.233 2.797-2.883 3.55-4.95 0.747-2.067 1.12-4.333 1.12-6.8v0c0-1.8-0.207-3.527-0.62-5.18-0.42-1.647-1.073-3.103-1.96-4.37-0.88-1.267-2.01-2.267-3.39-3-1.387-0.733-3.047-1.1-4.98-1.1v0h-10.25l0.4-0.4v28.15zM148.65-32.95v30.9c0 0.567-0.207 1.05-0.62 1.45-0.42 0.4-0.913 0.6-1.48 0.6v0c-0.633 0-1.133-0.2-1.5-0.6-0.367-0.4-0.55-0.883-0.55-1.45v0-30.9c0-0.6 0.2-1.093 0.6-1.48 0.4-0.38 0.9-0.57 1.5-0.57v0c0.567 0 1.05 0.19 1.45 0.57 0.4 0.387 0.6 0.88 0.6 1.48zM159.45-35v0h17.8c0.567 0 1.05 0.183 1.45 0.55 0.4 0.367 0.6 0.833 0.6 1.4v0c0 0.567-0.2 1.023-0.6 1.37-0.4 0.353-0.883 0.53-1.45 0.53v0h-16.1l0.45-0.85v12.65l-0.5-0.55h13.9c0.567 0 1.05 0.183 1.45 0.55 0.4 0.367 0.6 0.833 0.6 1.4v0c0 0.567-0.2 1.027-0.6 1.38-0.4 0.347-0.883 0.52-1.45 0.52v0h-13.75l0.35-0.45v12.95l-0.3-0.35h15.95c0.567 0 1.05 0.2 1.45 0.6 0.4 0.4 0.6 0.85 0.6 1.35v0c0 0.567-0.2 1.033-0.6 1.4-0.4 0.367-0.883 0.55-1.45 0.55v0h-17.8c-0.567 0-1.043-0.2-1.43-0.6-0.38-0.4-0.57-0.883-0.57-1.45v0-30.95c0-0.567 0.19-1.043 0.57-1.43 0.387-0.38 0.863-0.57 1.43-0.57zM196.15 0.5v0c-2.467 0-4.633-0.367-6.5-1.1-1.867-0.733-3.667-1.9-5.4-3.5v0c-0.233-0.233-0.427-0.493-0.58-0.78-0.147-0.28-0.22-0.587-0.22-0.92v0c0-0.533 0.19-1.01 0.57-1.43 0.387-0.413 0.863-0.62 1.43-0.62v0c0.467 0 0.883 0.183 1.25 0.55v0c1.3 1.267 2.707 2.233 4.22 2.9 1.52 0.667 3.23 1 5.13 1v0c1.467 0 2.79-0.233 3.97-0.7 1.187-0.467 2.13-1.117 2.83-1.95 0.7-0.833 1.05-1.8 1.05-2.9v0c-0.033-1.333-0.427-2.433-1.18-3.3-0.747-0.867-1.78-1.593-3.1-2.18-1.313-0.58-2.837-1.07-4.57-1.47v0c-1.533-0.367-2.943-0.817-4.23-1.35-1.28-0.533-2.387-1.193-3.32-1.98-0.933-0.78-1.66-1.73-2.18-2.85-0.513-1.113-0.77-2.42-0.77-3.92v0c0-1.9 0.5-3.567 1.5-5 1-1.433 2.383-2.543 4.15-3.33 1.767-0.78 3.8-1.17 6.1-1.17v0c2.033 0 3.957 0.333 5.77 1 1.82 0.667 3.28 1.583 4.38 2.75v0c0.667 0.633 1 1.25 1 1.85v0c0 0.5-0.21 0.957-0.63 1.37-0.413 0.42-0.887 0.63-1.42 0.63v0c-0.367 0-0.7-0.133-1-0.4v0c-0.567-0.633-1.283-1.2-2.15-1.7-0.867-0.5-1.817-0.9-2.85-1.2-1.033-0.3-2.067-0.45-3.1-0.45v0c-1.533 0-2.883 0.223-4.05 0.67-1.167 0.453-2.077 1.087-2.73 1.9-0.647 0.82-0.97 1.797-0.97 2.93v0c0 1.267 0.367 2.307 1.1 3.12 0.733 0.82 1.717 1.487 2.95 2 1.233 0.52 2.6 0.98 4.1 1.38v0c1.633 0.4 3.14 0.857 4.52 1.37 1.387 0.52 2.58 1.163 3.58 1.93 1 0.767 1.777 1.74 2.33 2.92 0.547 1.187 0.82 2.647 0.82 4.38v0c0 1.833-0.517 3.467-1.55 4.9-1.033 1.433-2.443 2.557-4.23 3.37-1.78 0.82-3.787 1.247-6.02 1.28z" fill="#000000" fill-rule="nonzero" stroke="none" stroke-width="1" stroke-linecap="butt" stroke-linejoin="miter" stroke-miterlimit="10" stroke-dasharray="" stroke-dashoffset="0" font-family="none" font-weight="none" font-size="none" text-anchor="none" style="mix-blend-mode: normal" data-fill-palette-color="primary" opacity="1"></path></g></svg></g></svg></g></svg></g></svg></g><g><svg viewBox="0 0 141.94614593634597 113.67192336035372" height="113.67192336035372" width="141.94614593634597"><g><svg xmlns="http://www.w3.org/2000/svg" viewBox="5 13.927084 89.99999604266544 72.07291599999999" x="0" y="0" height="113.67192336035372" width="141.94614593634597" class="icon-icon-0" data-fill-palette-color="accent" id="icon-0"><path d="M68.397 26.512C61.788 18.808 51.983 13.927 41.036 13.927 21.134 13.927 5 30.061 5 49.964 5 69.866 21.134 86 41.036 86 51.983 86 61.788 81.118 68.397 73.415L45.541 49.964 68.397 26.512zM50.046 22.416c2.776 0 5.025 2.25 5.024 5.025 0 2.775-2.25 5.025-5.024 5.025-2.775 0-5.025-2.25-5.025-5.025 0-2.775 2.25-5.025 5.025-5.025z" fill="#000000" data-fill-palette-color="accent"></path><path d="M72.226 68.21l0.022-11.778c25.347 0.732 28.238-22.284 14.978-36.698 5.361 9.778 6.235 24.652-14.932 24.096L72.317 31.808 54.071 49.964 72.226 68.21z" fill="#000000" data-fill-palette-color="accent"></path></svg></g></svg></g></svg></g><defs></defs></svg><rect width="395.5199999999999" height="77.94613204694895" fill="none" stroke="none" visibility="hidden"></rect></g></svg></g></svg>