<svg xmlns="http://www.w3.org/2000/svg" version="1.1" xmlns:xlink="http://www.w3.org/1999/xlink" xmlns:svgjs="http://svgjs.dev/svgjs" width="1000" height="1000" viewBox="0 0 1000 1000"><rect width="1000" height="1000" fill="#ffffff"></rect><g transform="matrix(0.7,0,0,0.7,149.57575757575756,418.1829662777276)"><svg viewBox="0 0 396 93" data-background-color="#ffffff" preserveAspectRatio="xMidYMid meet" height="234" width="1000" xmlns="http://www.w3.org/2000/svg" xmlns:xlink="http://www.w3.org/1999/xlink"><g id="tight-bounds" transform="matrix(1,0,0,1,0.2400000000000091,-0.04699689587363309)"><svg viewBox="0 0 395.52 93.094102291653" height="93.094102291653" width="395.52"><g><svg viewBox="0 0 583.548597246298 137.35065939572584" height="93.094102291653" width="395.52"><g transform="matrix(1,0,0,1,188.02859724629795,33.699353279292545)"><svg viewBox="0 0 395.52 69.95195283714075" height="69.95195283714075" width="395.52"><g id="textblocktransform"><svg viewBox="0 0 395.52 69.95195283714075" height="69.95195283714075" width="395.52" id="textblock"><g><svg viewBox="0 0 395.52 69.95195283714075" height="69.95195283714075" width="395.52"><g transform="matrix(1,0,0,1,0,0)"><svg width="395.52" viewBox="4.4 -35.5 203.54 36" height="69.95195283714075" data-palette-color="#ffa96a"><path d="M6.45 0L6.45 0Q5.55 0 4.98-0.6 4.4-1.2 4.4-2.05L4.4-2.05 4.4-33Q4.4-33.85 4.98-34.43 5.55-35 6.4-35L6.4-35 23.95-35Q24.8-35 25.4-34.45 26-33.9 26-33.05L26-33.05Q26-32.25 25.4-31.7 24.8-31.15 23.95-31.15L23.95-31.15 8.2-31.15 8.5-31.55 8.5-19.3 8.25-19.85 21.7-19.85Q22.55-19.85 23.15-19.28 23.75-18.7 23.75-17.85L23.75-17.85Q23.75-17.1 23.15-16.53 22.55-15.95 21.7-15.95L21.7-15.95 8.15-15.95 8.5-16.4 8.5-2.05Q8.5-1.2 7.9-0.6 7.3 0 6.45 0ZM63.75-17.5L63.75-17.5Q63.75-13.65 62.5-10.38 61.25-7.1 59-4.65 56.75-2.2 53.65-0.85 50.55 0.5 46.9 0.5L46.9 0.5Q43.2 0.5 40.12-0.85 37.05-2.2 34.8-4.65 32.55-7.1 31.3-10.38 30.05-13.65 30.05-17.5L30.05-17.5Q30.05-21.4 31.3-24.68 32.55-27.95 34.8-30.38 37.05-32.8 40.12-34.15 43.2-35.5 46.9-35.5L46.9-35.5Q50.55-35.5 53.65-34.15 56.75-32.8 59-30.38 61.25-27.95 62.5-24.68 63.75-21.4 63.75-17.5ZM59.45-17.5L59.45-17.5Q59.45-21.6 57.82-24.75 56.2-27.9 53.4-29.7 50.6-31.5 46.9-31.5L46.9-31.5Q43.2-31.5 40.37-29.7 37.55-27.9 35.95-24.75 34.35-21.6 34.35-17.5L34.35-17.5Q34.35-13.45 35.95-10.28 37.55-7.1 40.37-5.3 43.2-3.5 46.9-3.5L46.9-3.5Q50.6-3.5 53.4-5.3 56.2-7.1 57.82-10.28 59.45-13.45 59.45-17.5ZM101.95-17.5L101.95-17.5Q101.95-13.65 100.7-10.38 99.45-7.1 97.2-4.65 94.95-2.2 91.84-0.85 88.75 0.5 85.09 0.5L85.09 0.5Q81.4 0.5 78.32-0.85 75.25-2.2 73-4.65 70.75-7.1 69.5-10.38 68.25-13.65 68.25-17.5L68.25-17.5Q68.25-21.4 69.5-24.68 70.75-27.95 73-30.38 75.25-32.8 78.32-34.15 81.4-35.5 85.09-35.5L85.09-35.5Q88.75-35.5 91.84-34.15 94.95-32.8 97.2-30.38 99.45-27.95 100.7-24.68 101.95-21.4 101.95-17.5ZM97.65-17.5L97.65-17.5Q97.65-21.6 96.02-24.75 94.4-27.9 91.59-29.7 88.8-31.5 85.09-31.5L85.09-31.5Q81.4-31.5 78.57-29.7 75.75-27.9 74.15-24.75 72.55-21.6 72.55-17.5L72.55-17.5Q72.55-13.45 74.15-10.28 75.75-7.1 78.57-5.3 81.4-3.5 85.09-3.5L85.09-3.5Q88.8-3.5 91.59-5.3 94.4-7.1 96.02-10.28 97.65-13.45 97.65-17.5ZM110.59-35L123.09-35Q126.74-35 129.52-33.63 132.29-32.25 134.14-29.8 135.99-27.35 136.92-24.18 137.84-21 137.84-17.5L137.84-17.5Q137.84-12.7 136.19-8.72 134.54-4.75 131.29-2.38 128.04 0 123.09 0L123.09 0 110.59 0Q109.74 0 109.17-0.6 108.59-1.2 108.59-2.05L108.59-2.05 108.59-33Q108.59-33.85 109.17-34.43 109.74-35 110.59-35L110.59-35ZM112.44-3.9L122.59-3.9Q126.44-3.9 128.87-5.75 131.29-7.6 132.42-10.7 133.54-13.8 133.54-17.5L133.54-17.5Q133.54-20.2 132.92-22.68 132.29-25.15 130.97-27.05 129.64-28.95 127.57-30.05 125.49-31.15 122.59-31.15L122.59-31.15 112.34-31.15 112.74-31.55 112.74-3.4 112.44-3.9ZM148.64-32.95L148.64-2.05Q148.64-1.2 148.02-0.6 147.39 0 146.54 0L146.54 0Q145.59 0 145.04-0.6 144.49-1.2 144.49-2.05L144.49-2.05 144.49-32.95Q144.49-33.85 145.09-34.43 145.69-35 146.59-35L146.59-35Q147.44-35 148.04-34.43 148.64-33.85 148.64-32.95L148.64-32.95ZM159.44-35L159.44-35 177.24-35Q178.09-35 178.69-34.45 179.29-33.9 179.29-33.05L179.29-33.05Q179.29-32.2 178.69-31.68 178.09-31.15 177.24-31.15L177.24-31.15 161.14-31.15 161.59-32 161.59-19.35 161.09-19.9 174.99-19.9Q175.84-19.9 176.44-19.35 177.04-18.8 177.04-17.95L177.04-17.95Q177.04-17.1 176.44-16.57 175.84-16.05 174.99-16.05L174.99-16.05 161.24-16.05 161.59-16.5 161.59-3.55 161.29-3.9 177.24-3.9Q178.09-3.9 178.69-3.3 179.29-2.7 179.29-1.95L179.29-1.95Q179.29-1.1 178.69-0.55 178.09 0 177.24 0L177.24 0 159.44 0Q158.59 0 158.01-0.6 157.44-1.2 157.44-2.05L157.44-2.05 157.44-33Q157.44-33.85 158.01-34.43 158.59-35 159.44-35ZM196.13 0.5L196.13 0.5Q192.44 0.5 189.63-0.6 186.84-1.7 184.23-4.1L184.23-4.1Q183.88-4.45 183.66-4.88 183.44-5.3 183.44-5.8L183.44-5.8Q183.44-6.6 184.01-7.23 184.59-7.85 185.44-7.85L185.44-7.85Q186.13-7.85 186.69-7.3L186.69-7.3Q188.63-5.4 190.91-4.4 193.19-3.4 196.03-3.4L196.03-3.4Q198.23-3.4 200.01-4.1 201.78-4.8 202.84-6.05 203.88-7.3 203.88-8.95L203.88-8.95Q203.84-10.95 202.71-12.25 201.59-13.55 199.61-14.43 197.63-15.3 195.03-15.9L195.03-15.9Q192.73-16.45 190.81-17.25 188.88-18.05 187.48-19.23 186.09-20.4 185.31-22.08 184.53-23.75 184.53-26L184.53-26Q184.53-28.85 186.03-31 187.53-33.15 190.19-34.33 192.84-35.5 196.28-35.5L196.28-35.5Q199.34-35.5 202.06-34.5 204.78-33.5 206.44-31.75L206.44-31.75Q207.44-30.8 207.44-29.9L207.44-29.9Q207.44-29.15 206.81-28.53 206.19-27.9 205.38-27.9L205.38-27.9Q204.84-27.9 204.38-28.3L204.38-28.3Q203.53-29.25 202.24-30 200.94-30.75 199.38-31.2 197.84-31.65 196.28-31.65L196.28-31.65Q193.98-31.65 192.23-30.98 190.48-30.3 189.51-29.08 188.53-27.85 188.53-26.15L188.53-26.15Q188.53-24.25 189.63-23.03 190.73-21.8 192.59-21.03 194.44-20.25 196.69-19.65L196.69-19.65Q199.13-19.05 201.21-18.28 203.28-17.5 204.78-16.35 206.28-15.2 207.11-13.43 207.94-11.65 207.94-9.05L207.94-9.05Q207.94-6.3 206.38-4.15 204.84-2 202.16-0.78 199.48 0.45 196.13 0.5Z" opacity="1" transform="matrix(1,0,0,1,0,0)" fill="#ffa96a" class="undefined-text-0" data-fill-palette-color="primary" id="text-0"></path></svg></g></svg></g></svg></g></svg></g><g><svg viewBox="0 0 171.5146200283171 137.35065939572584" height="137.35065939572584" width="171.5146200283171"><g><svg xmlns="http://www.w3.org/2000/svg" viewBox="5 13.927084 89.99999604266544 72.07291599999999" x="0" y="0" height="137.35065939572584" width="171.5146200283171" class="icon-icon-0" data-fill-palette-color="accent" id="icon-0"><path d="M68.397 26.512C61.788 18.808 51.983 13.927 41.036 13.927 21.134 13.927 5 30.061 5 49.964 5 69.866 21.134 86 41.036 86 51.983 86 61.788 81.118 68.397 73.415L45.541 49.964 68.397 26.512zM50.046 22.416c2.776 0 5.025 2.25 5.024 5.025 0 2.775-2.25 5.025-5.024 5.025-2.775 0-5.025-2.25-5.025-5.025 0-2.775 2.25-5.025 5.025-5.025z" fill="#e65728" data-fill-palette-color="accent"></path><path d="M72.226 68.21l0.022-11.778c25.347 0.732 28.238-22.284 14.978-36.698 5.361 9.778 6.235 24.652-14.932 24.096L72.317 31.808 54.071 49.964 72.226 68.21z" fill="#e65728" data-fill-palette-color="accent"></path></svg></g></svg></g></svg></g><defs></defs></svg><rect width="395.52" height="93.094102291653" fill="none" stroke="none" visibility="hidden"></rect></g></svg></g></svg>